<mxfile host="app.diagrams.net" modified="2021-12-11T16:49:12.871Z" agent="5.0 (Macintosh; Intel Mac OS X 10_15_7) AppleWebKit/605.1.15 (KHTML, like Gecko) Version/15.1 Safari/605.1.15" etag="afg255Ophp8CJTLK_-rN" version="15.9.4" type="github">
  <diagram id="5DhgcH6jzRLOfP7Qu0oW" name="Page-1">
    <mxGraphModel dx="552" dy="423" grid="1" gridSize="10" guides="1" tooltips="1" connect="1" arrows="1" fold="1" page="1" pageScale="1" pageWidth="827" pageHeight="1169" math="0" shadow="0">
      <root>
        <mxCell id="0" />
        <mxCell id="1" parent="0" />
        <mxCell id="C4PRS4rC5Xd6t-OMOcKB-3" value="" style="rounded=1;whiteSpace=wrap;html=1;" vertex="1" parent="1">
          <mxGeometry x="390" y="70" width="120" height="60" as="geometry" />
        </mxCell>
        <mxCell id="C4PRS4rC5Xd6t-OMOcKB-5" style="edgeStyle=orthogonalEdgeStyle;rounded=0;orthogonalLoop=1;jettySize=auto;html=1;exitX=0.5;exitY=1;exitDx=0;exitDy=0;" edge="1" parent="1" source="C4PRS4rC5Xd6t-OMOcKB-4">
          <mxGeometry relative="1" as="geometry">
            <mxPoint x="450" y="170" as="targetPoint" />
          </mxGeometry>
        </mxCell>
        <mxCell id="C4PRS4rC5Xd6t-OMOcKB-4" value="Start" style="text;html=1;strokeColor=none;fillColor=none;align=center;verticalAlign=middle;whiteSpace=wrap;rounded=0;" vertex="1" parent="1">
          <mxGeometry x="400" y="70" width="100" height="60" as="geometry" />
        </mxCell>
        <mxCell id="C4PRS4rC5Xd6t-OMOcKB-9" style="edgeStyle=orthogonalEdgeStyle;rounded=0;orthogonalLoop=1;jettySize=auto;html=1;exitX=0.5;exitY=1;exitDx=0;exitDy=0;" edge="1" parent="1" source="C4PRS4rC5Xd6t-OMOcKB-6">
          <mxGeometry relative="1" as="geometry">
            <mxPoint x="450" y="260" as="targetPoint" />
          </mxGeometry>
        </mxCell>
        <mxCell id="C4PRS4rC5Xd6t-OMOcKB-6" value="" style="rounded=1;whiteSpace=wrap;html=1;" vertex="1" parent="1">
          <mxGeometry x="390" y="170" width="120" height="60" as="geometry" />
        </mxCell>
        <mxCell id="C4PRS4rC5Xd6t-OMOcKB-7" value="Generate a random word" style="text;html=1;strokeColor=none;fillColor=none;align=center;verticalAlign=middle;whiteSpace=wrap;rounded=0;" vertex="1" parent="1">
          <mxGeometry x="420" y="185" width="60" height="30" as="geometry" />
        </mxCell>
        <mxCell id="C4PRS4rC5Xd6t-OMOcKB-14" style="edgeStyle=orthogonalEdgeStyle;rounded=0;orthogonalLoop=1;jettySize=auto;html=1;exitX=0.5;exitY=1;exitDx=0;exitDy=0;" edge="1" parent="1" source="C4PRS4rC5Xd6t-OMOcKB-10">
          <mxGeometry relative="1" as="geometry">
            <mxPoint x="450" y="360" as="targetPoint" />
          </mxGeometry>
        </mxCell>
        <mxCell id="C4PRS4rC5Xd6t-OMOcKB-10" value="" style="rounded=1;whiteSpace=wrap;html=1;" vertex="1" parent="1">
          <mxGeometry x="370" y="260" width="160" height="70" as="geometry" />
        </mxCell>
        <mxCell id="C4PRS4rC5Xd6t-OMOcKB-13" value="Generate as many blanks as letters in word" style="text;html=1;strokeColor=none;fillColor=none;align=center;verticalAlign=middle;whiteSpace=wrap;rounded=0;" vertex="1" parent="1">
          <mxGeometry x="414" y="280" width="60" height="30" as="geometry" />
        </mxCell>
        <mxCell id="C4PRS4rC5Xd6t-OMOcKB-28" style="edgeStyle=orthogonalEdgeStyle;rounded=0;orthogonalLoop=1;jettySize=auto;html=1;entryX=0.5;entryY=0;entryDx=0;entryDy=0;" edge="1" parent="1" source="C4PRS4rC5Xd6t-OMOcKB-15" target="C4PRS4rC5Xd6t-OMOcKB-26">
          <mxGeometry relative="1" as="geometry" />
        </mxCell>
        <mxCell id="C4PRS4rC5Xd6t-OMOcKB-15" value="" style="rounded=1;whiteSpace=wrap;html=1;" vertex="1" parent="1">
          <mxGeometry x="390" y="360" width="140" height="60" as="geometry" />
        </mxCell>
        <mxCell id="C4PRS4rC5Xd6t-OMOcKB-16" value="Ask user to guess a letter" style="text;html=1;strokeColor=none;fillColor=none;align=center;verticalAlign=middle;whiteSpace=wrap;rounded=0;" vertex="1" parent="1">
          <mxGeometry x="420" y="375" width="60" height="30" as="geometry" />
        </mxCell>
        <mxCell id="C4PRS4rC5Xd6t-OMOcKB-21" style="edgeStyle=orthogonalEdgeStyle;rounded=0;orthogonalLoop=1;jettySize=auto;html=1;exitX=1;exitY=0.5;exitDx=0;exitDy=0;entryX=1;entryY=0.5;entryDx=0;entryDy=0;" edge="1" parent="1" source="C4PRS4rC5Xd6t-OMOcKB-18" target="C4PRS4rC5Xd6t-OMOcKB-15">
          <mxGeometry relative="1" as="geometry" />
        </mxCell>
        <mxCell id="C4PRS4rC5Xd6t-OMOcKB-18" value="" style="rhombus;whiteSpace=wrap;html=1;" vertex="1" parent="1">
          <mxGeometry x="520" y="630" width="120" height="80" as="geometry" />
        </mxCell>
        <mxCell id="C4PRS4rC5Xd6t-OMOcKB-19" value="Have they run out of lives ?" style="text;html=1;strokeColor=none;fillColor=none;align=center;verticalAlign=middle;whiteSpace=wrap;rounded=0;" vertex="1" parent="1">
          <mxGeometry x="550" y="655" width="60" height="30" as="geometry" />
        </mxCell>
        <mxCell id="C4PRS4rC5Xd6t-OMOcKB-25" style="edgeStyle=orthogonalEdgeStyle;rounded=0;orthogonalLoop=1;jettySize=auto;html=1;entryX=0;entryY=0.5;entryDx=0;entryDy=0;" edge="1" parent="1" target="C4PRS4rC5Xd6t-OMOcKB-15">
          <mxGeometry relative="1" as="geometry">
            <mxPoint x="213" y="390" as="targetPoint" />
            <mxPoint x="253" y="670" as="sourcePoint" />
            <Array as="points">
              <mxPoint x="230" y="670" />
              <mxPoint x="230" y="390" />
            </Array>
          </mxGeometry>
        </mxCell>
        <mxCell id="C4PRS4rC5Xd6t-OMOcKB-22" value="" style="rhombus;whiteSpace=wrap;html=1;" vertex="1" parent="1">
          <mxGeometry x="250" y="630" width="100" height="80" as="geometry" />
        </mxCell>
        <mxCell id="C4PRS4rC5Xd6t-OMOcKB-23" value="Are all the blanks filled ?" style="text;html=1;strokeColor=none;fillColor=none;align=center;verticalAlign=middle;whiteSpace=wrap;rounded=0;" vertex="1" parent="1">
          <mxGeometry x="270" y="655" width="60" height="30" as="geometry" />
        </mxCell>
        <mxCell id="C4PRS4rC5Xd6t-OMOcKB-34" style="edgeStyle=orthogonalEdgeStyle;rounded=0;orthogonalLoop=1;jettySize=auto;html=1;entryX=0.5;entryY=0;entryDx=0;entryDy=0;" edge="1" parent="1" source="C4PRS4rC5Xd6t-OMOcKB-26" target="C4PRS4rC5Xd6t-OMOcKB-30">
          <mxGeometry relative="1" as="geometry" />
        </mxCell>
        <mxCell id="C4PRS4rC5Xd6t-OMOcKB-37" style="edgeStyle=orthogonalEdgeStyle;rounded=0;orthogonalLoop=1;jettySize=auto;html=1;entryX=0.667;entryY=-0.033;entryDx=0;entryDy=0;entryPerimeter=0;" edge="1" parent="1" source="C4PRS4rC5Xd6t-OMOcKB-26" target="C4PRS4rC5Xd6t-OMOcKB-32">
          <mxGeometry relative="1" as="geometry">
            <Array as="points">
              <mxPoint x="590" y="510" />
            </Array>
          </mxGeometry>
        </mxCell>
        <mxCell id="C4PRS4rC5Xd6t-OMOcKB-26" value="" style="rhombus;whiteSpace=wrap;html=1;" vertex="1" parent="1">
          <mxGeometry x="400" y="465" width="120" height="90" as="geometry" />
        </mxCell>
        <mxCell id="C4PRS4rC5Xd6t-OMOcKB-27" value="Is the guessed letter in the word ?" style="text;html=1;strokeColor=none;fillColor=none;align=center;verticalAlign=middle;whiteSpace=wrap;rounded=0;" vertex="1" parent="1">
          <mxGeometry x="430" y="495" width="60" height="30" as="geometry" />
        </mxCell>
        <mxCell id="C4PRS4rC5Xd6t-OMOcKB-39" style="edgeStyle=orthogonalEdgeStyle;rounded=0;orthogonalLoop=1;jettySize=auto;html=1;entryX=1;entryY=0;entryDx=0;entryDy=0;" edge="1" parent="1" source="C4PRS4rC5Xd6t-OMOcKB-30" target="C4PRS4rC5Xd6t-OMOcKB-22">
          <mxGeometry relative="1" as="geometry" />
        </mxCell>
        <mxCell id="C4PRS4rC5Xd6t-OMOcKB-30" value="" style="rounded=1;whiteSpace=wrap;html=1;" vertex="1" parent="1">
          <mxGeometry x="270" y="550" width="120" height="60" as="geometry" />
        </mxCell>
        <mxCell id="C4PRS4rC5Xd6t-OMOcKB-31" value="Replace the blank with the letter" style="text;html=1;strokeColor=none;fillColor=none;align=center;verticalAlign=middle;whiteSpace=wrap;rounded=0;" vertex="1" parent="1">
          <mxGeometry x="300" y="565" width="60" height="30" as="geometry" />
        </mxCell>
        <mxCell id="C4PRS4rC5Xd6t-OMOcKB-32" value="" style="rounded=1;whiteSpace=wrap;html=1;" vertex="1" parent="1">
          <mxGeometry x="510" y="550" width="120" height="60" as="geometry" />
        </mxCell>
        <mxCell id="C4PRS4rC5Xd6t-OMOcKB-38" style="edgeStyle=orthogonalEdgeStyle;rounded=0;orthogonalLoop=1;jettySize=auto;html=1;entryX=0.433;entryY=0.063;entryDx=0;entryDy=0;entryPerimeter=0;" edge="1" parent="1" target="C4PRS4rC5Xd6t-OMOcKB-18">
          <mxGeometry relative="1" as="geometry">
            <mxPoint x="572" y="615" as="sourcePoint" />
          </mxGeometry>
        </mxCell>
        <mxCell id="C4PRS4rC5Xd6t-OMOcKB-33" value="Lose a life" style="text;html=1;strokeColor=none;fillColor=none;align=center;verticalAlign=middle;whiteSpace=wrap;rounded=0;" vertex="1" parent="1">
          <mxGeometry x="540" y="565" width="60" height="30" as="geometry" />
        </mxCell>
        <mxCell id="C4PRS4rC5Xd6t-OMOcKB-35" value="Yes" style="text;html=1;strokeColor=none;fillColor=none;align=center;verticalAlign=middle;whiteSpace=wrap;rounded=0;" vertex="1" parent="1">
          <mxGeometry x="290" y="495" width="60" height="30" as="geometry" />
        </mxCell>
        <mxCell id="C4PRS4rC5Xd6t-OMOcKB-36" value="No" style="text;html=1;strokeColor=none;fillColor=none;align=center;verticalAlign=middle;whiteSpace=wrap;rounded=0;" vertex="1" parent="1">
          <mxGeometry x="580" y="495" width="60" height="30" as="geometry" />
        </mxCell>
        <mxCell id="C4PRS4rC5Xd6t-OMOcKB-40" value="" style="rounded=1;whiteSpace=wrap;html=1;" vertex="1" parent="1">
          <mxGeometry x="390" y="820" width="120" height="60" as="geometry" />
        </mxCell>
        <mxCell id="C4PRS4rC5Xd6t-OMOcKB-41" value="Game Over" style="text;html=1;strokeColor=none;fillColor=none;align=center;verticalAlign=middle;whiteSpace=wrap;rounded=0;" vertex="1" parent="1">
          <mxGeometry x="414" y="840" width="60" height="30" as="geometry" />
        </mxCell>
        <mxCell id="C4PRS4rC5Xd6t-OMOcKB-45" value="Yes" style="text;html=1;strokeColor=none;fillColor=none;align=center;verticalAlign=middle;whiteSpace=wrap;rounded=0;" vertex="1" parent="1">
          <mxGeometry x="310" y="730" width="60" height="30" as="geometry" />
        </mxCell>
        <mxCell id="C4PRS4rC5Xd6t-OMOcKB-46" value="No" style="text;html=1;strokeColor=none;fillColor=none;align=center;verticalAlign=middle;whiteSpace=wrap;rounded=0;" vertex="1" parent="1">
          <mxGeometry x="510" y="730" width="60" height="30" as="geometry" />
        </mxCell>
        <mxCell id="C4PRS4rC5Xd6t-OMOcKB-52" value="" style="endArrow=none;html=1;rounded=0;" edge="1" parent="1">
          <mxGeometry width="50" height="50" relative="1" as="geometry">
            <mxPoint x="300" y="770" as="sourcePoint" />
            <mxPoint x="300" y="710" as="targetPoint" />
          </mxGeometry>
        </mxCell>
        <mxCell id="C4PRS4rC5Xd6t-OMOcKB-53" value="" style="endArrow=none;html=1;rounded=0;" edge="1" parent="1">
          <mxGeometry width="50" height="50" relative="1" as="geometry">
            <mxPoint x="300" y="770" as="sourcePoint" />
            <mxPoint x="580" y="770" as="targetPoint" />
            <Array as="points">
              <mxPoint x="300" y="770" />
            </Array>
          </mxGeometry>
        </mxCell>
        <mxCell id="C4PRS4rC5Xd6t-OMOcKB-54" value="" style="endArrow=none;html=1;rounded=0;entryX=0.5;entryY=1;entryDx=0;entryDy=0;" edge="1" parent="1" target="C4PRS4rC5Xd6t-OMOcKB-18">
          <mxGeometry width="50" height="50" relative="1" as="geometry">
            <mxPoint x="580" y="770" as="sourcePoint" />
            <mxPoint x="630" y="720" as="targetPoint" />
          </mxGeometry>
        </mxCell>
        <mxCell id="C4PRS4rC5Xd6t-OMOcKB-57" value="" style="endArrow=classic;html=1;rounded=0;entryX=0.5;entryY=0;entryDx=0;entryDy=0;" edge="1" parent="1" target="C4PRS4rC5Xd6t-OMOcKB-40">
          <mxGeometry width="50" height="50" relative="1" as="geometry">
            <mxPoint x="450" y="770" as="sourcePoint" />
            <mxPoint x="500" y="720" as="targetPoint" />
            <Array as="points" />
          </mxGeometry>
        </mxCell>
        <mxCell id="C4PRS4rC5Xd6t-OMOcKB-58" value="Text" style="text;html=1;strokeColor=none;fillColor=none;align=center;verticalAlign=middle;whiteSpace=wrap;rounded=0;" vertex="1" parent="1">
          <mxGeometry x="370" y="580" width="60" height="30" as="geometry" />
        </mxCell>
        <mxCell id="C4PRS4rC5Xd6t-OMOcKB-59" value="No" style="text;html=1;strokeColor=none;fillColor=none;align=center;verticalAlign=middle;whiteSpace=wrap;rounded=0;" vertex="1" parent="1">
          <mxGeometry x="170" y="640" width="60" height="30" as="geometry" />
        </mxCell>
        <mxCell id="C4PRS4rC5Xd6t-OMOcKB-60" value="No" style="text;html=1;strokeColor=none;fillColor=none;align=center;verticalAlign=middle;whiteSpace=wrap;rounded=0;" vertex="1" parent="1">
          <mxGeometry x="650" y="640" width="60" height="30" as="geometry" />
        </mxCell>
      </root>
    </mxGraphModel>
  </diagram>
</mxfile>
